<svg width="71" height="82" viewBox="0 0 71 82" fill="none" xmlns="http://www.w3.org/2000/svg">
<path d="M33.882 0.591697C32.4796 1.49899 31.7275 2.34712 31.0568 3.68834C30.5284 4.77316 30.4471 5.14791 30.4674 6.6272C30.4674 8.08677 30.5487 8.48124 31.0771 9.58578C31.443 10.355 32.0934 11.2426 32.7235 11.8343L33.7397 12.8008V17.2386C33.7397 19.8422 33.6584 21.716 33.5365 21.7949C33.2519 21.9724 32.7845 20.927 32.6219 19.7238C32.256 16.9033 31.443 14.9704 30.0609 13.6094C28.6584 12.2288 26.1584 11.3412 24.0649 11.4793C23.191 11.5384 23.069 11.5976 22.9064 12.1302C22.8048 12.4457 22.7235 13.57 22.7032 14.5956C22.6828 16.2722 22.7235 16.568 23.2113 17.4753C24.3292 19.5463 26.0975 20.8087 28.7804 21.4004C30.691 21.8343 31.4023 22.2091 32.134 23.1164C32.4999 23.5897 32.8861 24.0039 32.9674 24.0631C33.4552 24.4181 33.5365 25.7199 33.5365 33.3925L33.5162 41.5187L32.7438 39.9408C31.6259 37.6331 29.878 35.5424 26.6462 32.5641C24.004 30.1578 23.6991 29.783 22.9471 28.3037C22.4796 27.3373 21.8698 25.5818 21.443 23.9448C19.9796 18.2051 19.4714 17.0217 17.6625 15.1085C16.9918 14.3984 15.8129 13.4122 15.0202 12.8994C13.6788 12.0315 10.3454 10.4536 9.8373 10.4536C9.47145 10.4536 9.36982 10.9073 9.04462 13.5897C8.59746 17.6528 9.14624 20.5128 10.9145 23.0572C12.4389 25.2071 14.6747 27.1006 17.2763 28.3826C24.2072 31.8146 28.9023 35.9369 31.4836 40.7889C32.4999 42.7219 33.3332 45.4635 33.4755 47.2781C33.5771 48.5996 33.6584 48.9152 33.9227 48.9152C34.1056 48.9152 34.4511 48.9743 34.6747 49.0335L35.1015 49.1519L35.2641 41.9724C35.3658 36.4102 35.4674 34.6745 35.691 34.2012C36.1991 33.1755 37.2967 32.1893 38.2519 31.9329C41.1178 31.1834 41.7479 30.8876 42.9877 29.6844C43.6788 29.0335 44.4511 28.0473 44.7153 27.5148C45.1625 26.6469 45.2235 26.2722 45.2235 24.2209C45.2235 22.7219 45.1422 21.8343 44.9796 21.6765C44.695 21.4004 42.0324 21.7357 40.4674 22.2485C38.4145 22.9191 36.6056 24.9112 36.1991 26.9231C35.8536 28.5601 35.7723 28.7968 35.5487 28.7968C35.4471 28.7968 35.3658 25.5424 35.3658 20.6114V12.4457L36.0771 12.1104C36.9918 11.6962 38.1503 10.4536 38.6991 9.28992C39.0243 8.57986 39.1259 8.00787 39.1259 6.60748C39.1259 4.04337 38.4755 2.84022 35.9145 0.631145C35.508 0.295839 35.1015 -1.89394e-05 34.9999 -1.89394e-05C34.8983 -1.89394e-05 34.4105 0.276115 33.882 0.591697Z" fill="#FFF9F9"/>
<path d="M54.8781 5.14806C52.2562 5.48336 49.6139 7.35713 47.9472 10.079C46.6261 12.2092 46.3009 13.3729 46.3009 15.8778C46.3009 17.9094 46.3415 18.1658 47.0123 19.8226C47.4188 20.7891 47.8456 22.2092 47.9879 22.9784C48.1098 23.7279 48.6179 25.2861 49.0854 26.4301C50.6301 30.0987 50.9147 31.5386 50.8944 35.5031C50.874 38.3828 50.8131 39.2112 50.4472 40.5327C48.8009 46.4498 44.7155 50.0988 38.3131 51.3808C36.9716 51.6372 35.6301 51.6964 30.4879 51.6372C25.3253 51.5978 24.0041 51.6372 22.6423 51.9133C20.7927 52.2881 18.3334 53.1757 16.6667 54.083C11.6057 56.8246 8.31306 62.0711 7.84558 68.1066L7.72363 69.6648L8.39436 70.2763C9.26835 71.1047 10.874 72.3867 11.057 72.3867C11.1179 72.3867 11.1789 72.2092 11.1789 71.9922C11.1789 71.1638 11.8293 68.5603 12.2765 67.5741C12.5407 67.0218 12.8049 66.4104 12.8659 66.2329C13.1505 65.4834 14.4513 63.7082 15.6505 62.4656C17.8659 60.1579 20.8334 58.4025 23.9025 57.5741C25.6505 57.1007 27.5407 57.0416 35.6708 57.1599C40.061 57.2388 41.2399 57.1007 44.3497 56.1145C45.8944 55.6214 47.9066 54.6352 48.9431 53.8266C51.3822 51.9922 53.7805 48.9548 54.8781 46.292C56.87 41.4597 56.4025 34.9311 53.6992 29.8818C51.5041 25.7792 50.5082 20.5524 51.3009 17.3177C51.8903 14.9311 53.5976 12.8798 55.8537 11.8739C57.4391 11.1638 59.7968 11.1244 61.2196 11.8147C63.9635 13.1165 65.1627 15.9765 63.9635 18.3433C63.2521 19.7437 61.3415 20.7102 59.8984 20.4143C59.1667 20.2565 57.7236 19.5268 57.7236 19.3098C57.7236 19.2309 57.5814 19.1126 57.3984 19.0534C57.1342 18.9548 57.0936 19.0337 57.1952 19.4281C57.3781 20.1579 58.6586 22.1895 59.37 22.8601C59.9188 23.3926 60.122 23.4715 61.1383 23.4715C63.435 23.4715 66.0773 21.5978 67.2155 19.1323C67.8456 17.7911 68.0692 15.2861 67.683 13.6293C67.2968 11.9133 66.3009 10.1382 64.9188 8.69836C62.2765 5.95674 58.6383 4.67469 54.8781 5.14806Z" fill="#FFF9F9"/>
<path d="M54.5934 15.7593C53.5365 16.8835 53.3942 19.4082 54.1869 22.3865C54.9999 25.4634 55.9552 27.0808 57.1137 27.3175C57.6422 27.4358 59.4918 28.8362 60.4471 29.8618C60.6706 30.0788 61.4227 30.8678 62.1137 31.5975C64.2072 33.7869 65.4064 36.2721 65.9755 39.6449C66.7682 44.3983 65.8129 49.9802 63.3536 54.7731C62.3373 56.7652 61.0771 58.5601 59.0853 60.8086C57.9471 62.0906 54.5324 64.635 52.8048 65.5029C50.447 66.6666 45.9349 68.067 43.2519 68.4614C42.4389 68.5798 41.3617 68.7968 40.8536 68.9348C40.3454 69.0729 39.0243 69.4279 37.9064 69.7238C35.6097 70.3352 32.7438 71.5581 30.9552 72.7415C29.634 73.6094 27.4389 75.7987 26.8901 76.7849C26.2804 77.9092 25.5893 79.9407 25.7926 80.138C26.2194 80.5522 32.4592 81.4595 34.8779 81.4595C36.5649 81.4595 40.3657 80.9861 42.1747 80.5522C42.8454 80.3747 43.7601 80.1774 44.2275 80.0788C45.3048 79.8618 48.9227 78.5206 50.7113 77.6922C55.6097 75.424 60.9552 70.9664 63.8617 66.7652C67.7844 61.1242 69.2885 57.0808 69.9999 50.4338C70.2844 47.7908 70.2844 47.2188 70.0202 44.6153C69.5731 40.5719 69.0649 38.7376 67.6422 35.996C66.0771 32.9782 64.0853 30.5325 61.0568 27.8895C57.8251 25.0887 56.4227 23.6291 55.7926 22.3865C55.2031 21.2228 55.1828 21.1439 55.2031 18.2839C55.2031 16.6863 55.1422 15.3845 55.0812 15.3845C54.9999 15.3845 54.7763 15.562 54.5934 15.7593Z" fill="#FFF9F9"/>
<path d="M1.48397 28.7374C0.894543 28.7769 0.406738 28.8952 0.406738 28.9741C0.406738 29.5264 2.72381 34.5165 3.31324 35.266C6.21975 38.8163 9.81731 40.8282 14.3295 41.4002C19.1669 42.0116 21.4433 42.4455 23.6791 43.1161C25.7116 43.7473 28.2929 44.8518 29.4515 45.6013L30.3254 46.1733L30.2035 45.6211C29.797 44.0037 26.8905 39.1714 25.1222 37.199C23.7807 35.6802 21.5043 33.8065 19.3905 32.4455C14.736 29.4672 11.5246 28.5796 5.81324 28.6388C4.02462 28.6585 2.05308 28.698 1.48397 28.7374Z" fill="#FFF9F9"/>
<path d="M56.057 28.718C55.8741 28.8758 56.4025 30.3354 57.3578 32.3472C58.9025 35.5425 59.3294 38.1657 58.9432 42.2683C58.2521 49.9409 53.0082 56.3314 45.3253 58.8363C42.0326 59.9014 40.6912 60 30.996 59.7831C27.744 59.7042 26.8903 59.7436 25.6099 60.0395C21.9107 60.9271 18.6586 63.0178 16.6464 65.8186C15.305 67.6726 14.0448 71.1046 13.7399 73.7081L13.5977 74.7338L15.0204 75.5227C17.0733 76.6864 16.931 76.7259 17.3172 75.1085C17.6017 73.8856 18.7399 71.1243 19.1058 70.8087C19.1668 70.7496 19.4513 70.3945 19.7359 70.0198C22.2562 66.7456 27.0326 64.6943 32.1342 64.6943C33.0895 64.6943 35.183 64.8718 36.7887 65.0888C40.996 65.6608 41.87 65.6213 45.8944 64.6746C52.7237 63.0967 57.7847 59.1125 61.0367 52.7614C61.4635 51.9527 61.5448 51.7357 62.1749 49.7239C63.1302 46.7259 63.4757 43.8462 63.2115 41.0454C62.9066 37.8699 62.744 37.2782 61.3822 34.576C59.5326 30.9073 56.8497 27.9488 56.057 28.718Z" fill="#FFF9F9"/>
<path d="M44.6138 33.057C40.8943 33.7868 38.9024 35.266 38.0691 37.9485C37.7439 38.9939 37.561 44.7729 37.8455 44.7729C37.9268 44.7729 38.2927 44.5954 38.6585 44.3785C39.0244 44.1615 40.1016 43.7473 41.0569 43.4712C43.3943 42.7808 44.0447 42.4258 45.1829 41.2424C47.0122 39.3489 47.6829 36.9228 47.2155 33.9248C47.0122 32.6428 46.8902 32.6033 44.6138 33.057Z" fill="#FFF9F9"/>
<path d="M11.687 44.28C8.53659 45.0492 6.15854 46.134 4.26829 47.6922C1.64634 49.8618 0 52.5246 0 54.5956C0 55.2267 0.223577 56.4693 0.487805 57.3964L0.955285 59.0729L1.28049 58.4417C1.48374 58.0867 1.62602 57.633 1.62602 57.4161C1.62602 55.3845 5.14228 50.8086 8.29268 48.7376C10.7114 47.1399 14.5528 45.9565 17.2154 45.9565C18.4756 45.9565 20.1423 46.351 20.2642 46.6863C20.4472 47.1597 20.0406 47.3569 17.9675 47.7711C12.7439 48.777 8.10976 51.4989 5.63008 55.0098C4.22764 56.9822 3.04878 60.2169 3.04878 62.0709C3.04878 62.9585 3.19106 63.3135 4.00406 64.5956C4.51219 65.424 5.02033 66.0157 5.10163 65.9368C5.18293 65.8579 5.36585 65.1676 5.4878 64.4378C5.83333 62.2682 7.31707 58.994 8.80081 57.1005C9.73577 55.9171 12.378 53.4121 13.4146 52.7218C17.622 49.9407 21.9715 48.777 27.561 48.9545C29.065 48.994 29.8577 48.9545 29.8171 48.8165C29.6138 48.1459 22.3171 45.3648 18.3943 44.4575C16.1179 43.925 13.3943 43.8658 11.687 44.28Z" fill="#FFF9F9"/>
<path d="M29.1667 67.5543C27.7439 67.9291 26.4228 68.5011 25.1626 69.29C23.6179 70.2565 23.1504 70.7101 21.8903 72.4261C20.813 73.8857 20.1423 75.4833 19.8171 77.3373L19.6748 78.0474L21.0163 78.58C21.7683 78.8561 22.439 79.0928 22.5407 79.0928C22.6423 79.0928 22.8049 78.8166 22.8659 78.4616C23.5163 75.6411 26.4228 72.0908 29.6342 70.2565C31.748 69.0336 35.2439 67.8502 36.7073 67.8502C36.9716 67.8502 37.1951 67.7713 37.1951 67.6727C37.1951 67.219 30.8333 67.1204 29.1667 67.5543Z" fill="#FFF9F9"/>
</svg>
